<svg xmlns="http://www.w3.org/2000/svg" width="33" height="31" fill="none"><path fill="#fff" d="m3.18 27.25.43-5.93 5.51 5.5-5.94.43Z"/><path fill="#fff" d="M6.72 25.14 5.3 23.72l4.25-4.24 1.41 1.41zM29.25 27.25l-5.93-.42 5.5-5.51.43 5.93Z"/><path fill="#fff" d="m27.13 23.7-1.41 1.42-4.24-4.24 1.41-1.41zM28.25 3.18l-.42 5.94-5.51-5.51 5.93-.43Z"/><path fill="#fff" d="m24.72 5.3 1.41 1.42-4.24 4.24-1.41-1.41zM3.18 3.18l5.94.43-5.51 5.51-.43-5.94Z"/><path fill="#fff" d="m5.3 6.72 1.41-1.41 4.25 4.24-1.42 1.41z"/></svg>