<svg xmlns="http://www.w3.org/2000/svg" width="100" height="100" fill="none"><path fill="#CD5C5C" d="M43.15 30.83a47.13 47.13 0 0 0 8.12-7.23 41.86 41.86 0 0 0 5.5-7.49 48.6 48.6 0 0 0 2.89-5.95c.64-1.66.96-2.86.96-3.58 0-.43-.15-.64-.45-.64-.6 0-1.32.42-2.18 1.28a47.2 47.2 0 0 0-5.5 7.04 148.5 148.5 0 0 0-5 7.93c-1.23 2.18-2.85 5.1-4.86 8.77.18 0 .35-.04.52-.13Zm-6.85 21.5c1.8-1.79 4.16-4.37 7.1-7.74.13-.13.24-.19.32-.19.09 0 .13.09.13.26 0 .8-.32 1.6-.96 2.36-3.16 3.5-5.95 6.43-8.38 8.77-5.34 5.04-8.73 7.55-10.18 7.55-.64 0-.96-.44-.96-1.34 0-.47.06-.98.2-1.54.08-.55.25-1.15.5-1.79l.64-1.66c.22-.47.5-1.11.84-1.92.38-.86.64-1.43.76-1.73 1.2-2.69 4.87-9.77 11.01-21.25C45.72 16.8 53.45 7.4 60.5 3.9a6.82 6.82 0 0 1 3.07-.77c1.2 0 1.8.55 1.8 1.66 0 2.56-.88 5.38-2.63 8.45a41.59 41.59 0 0 1-6.4 8.39c-2.52 2.56-5 4.8-7.42 6.72a47.3 47.3 0 0 1-6.21 4.35c-.26.08-.5.28-.7.57-1.88 3.03-3.72 6.3-5.5 9.8-1.8 3.45-3.15 6.18-4.04 8.19l-1.28 2.94a5.24 5.24 0 0 0-.32 1.28c0 .39.15.58.45.58.85 0 2.51-1.24 4.99-3.71Z"/><path fill="#CD5C5C" d="M39.94 64.92c-.45.84-3.14 6.24-8.07 16.23-3.26 6.65-6.56 11.68-9.88 15.07-3.27 3.46-5.76 5.18-7.5 5.18-.76 0-1.14-.35-1.14-1.05l.28-1.15c.7-1.92 2.88-6.44 6.53-13.54 3.71-7.1 7.17-13.4 10.37-18.91 3-5.25 5.95-10.3 8.83-15.17 2.88-4.93 5.03-8.54 6.43-10.85l2.12-3.45.48-.77a16.43 16.43 0 0 1 3.36-3.84c.7-.64 1.53-1.22 2.5-1.73a5.9 5.9 0 0 1 2.78-.77c.83 0 1.24.23 1.24.67 0 .58-.38 1.41-1.15 2.5-4.8 8.2-9.92 17.5-15.36 27.94a.85.85 0 0 0-.1.38c0 .2.13.29.39.29 4.03 0 7.74-.77 11.14-2.3a23.47 23.47 0 0 0 8.35-5.96 28.58 28.58 0 0 0 4.99-7.97 20.95 20.95 0 0 0 1.82-8.35c0-3.9-1.47-6.85-4.41-8.83a18.1 18.1 0 0 0-10.37-2.98c-3 0-5.95.45-8.83 1.35-2.82.9-5.31 2.43-7.49 4.6a10.78 10.78 0 0 0-3.17 7.78c0 1.8.48 3.52 1.44 5.19.32.64.48 1.08.48 1.34 0 .38-.25.58-.77.58a4.2 4.2 0 0 1-1.54-.58c-.31-.2-.89-.58-1.72-1.15a15.95 15.95 0 0 1-2.2-1.83 9.51 9.51 0 0 1-1.74-2.5 7.6 7.6 0 0 1-.76-3.26c0-3.96 2.43-7.3 7.3-9.98 4.92-2.69 10.49-4.03 16.7-4.03 3 0 5.85.25 8.54.77a34.9 34.9 0 0 1 7.97 2.5 14.28 14.28 0 0 1 6.24 4.8c1.53 2.1 2.3 4.6 2.3 7.48a20.9 20.9 0 0 1-3.36 11.62 24.58 24.58 0 0 1-8.64 8.16A48.93 48.93 0 0 1 53 63a49.35 49.35 0 0 1-12.19 1.54c-.06-.06-.16-.1-.29-.1-.25 0-.44.16-.57.48Z"/></svg>